<?xml version="1.0" encoding="utf-8"?>
<!-- Svg Vector Icons : http://www.onlinewebfonts.com/icon -->
<!DOCTYPE svg PUBLIC "-//W3C//DTD SVG 1.1//EN" "http://www.w3.org/Graphics/SVG/1.1/DTD/svg11.dtd">
<svg version="1.1" xmlns="http://www.w3.org/2000/svg" xmlns:xlink="http://www.w3.org/1999/xlink" x="0px" y="0px" viewBox="0 0 1000 1000" enable-background="new 0 0 1000 1000" fill="white" xml:space="preserve">
<metadata> Svg Vector Icons : http://www.onlinewebfonts.com/icon </metadata>
<g><g transform="translate(0.000000,511.000000) scale(0.100000,-0.100000)"><path d="M4716.5,5000c-396.5-27.5-863.6-129.5-1187.5-259.1c-343.5-137.4-634-335.6-669.3-453.4c-11.8-43.2-17.7-316-13.7-732.1l5.9-665.4l55-47.1c66.7-56.9,129.5-60.8,198.2-5.9l51,39.3V3522v645.8l74.6,60.8c198.2,166.8,687,349.4,1134.5,425.9c325.8,55,1032.4,49.1,1352.4-9.8c522.1-94.2,891.1-235.5,1073.7-410.2l55-51l-13.7-614.4c-9.8-467.1-5.9-626.1,11.8-671.3c29.5-68.7,115.8-111.9,188.4-94.2c98.1,25.5,102.1,49.1,115.8,789l11.8,690.9l-45.1,64.8c-58.9,88.3-274.8,249.3-455.4,337.6C6178.8,4925.4,5415.3,5047.1,4716.5,5000z"/><path d="M4950.1,4542.7c-84.4-33.4-106-94.2-106-298.3V4052h-198.2c-194.3,0-198.2-2-257.1-58.9c-49.1-51-56.9-70.7-47.1-123.6c21.6-109.9,68.7-131.5,298.3-131.5h204.1v-206.1c0-194.3,3.9-210,49.1-255.2c29.4-31.4,70.7-49.1,108-49.1c37.3,0,78.5,17.7,108,49.1c45.1,45.1,49.1,60.8,49.1,255.2v206.1h204.1c229.6,0,276.8,21.6,298.3,131.5c9.8,53,2,72.6-47.1,123.6c-58.9,56.9-62.8,58.9-257.1,58.9h-198.2v194.3c0,176.7-3.9,200.2-43.2,245.4C5062,4548.6,5007,4566.2,4950.1,4542.7z"/><path d="M3941.2,3331.6c-27.5-3.9-119.7-43.2-206.1-84.4c-316-153.1-508.4-422-592.8-832.2c-33.4-166.8-37.3-174.7-107.9-210c-98.1-51-147.2-119.7-172.7-247.3c-29.4-141.3-7.8-433.8,43.2-567.2c43.2-117.8,159-259.1,255.2-310.1c55-29.4,74.6-58.9,111.9-166.8c200.2-573.1,598.7-1054,1071.7-1293.5c231.6-115.8,384.7-151.1,667.3-151.1c235.5,2,268.9,5.9,439.6,64.8C5853-327,6180.8-64,6445.7,334.5c109.9,164.9,233.6,412.2,294.4,594.7c27.5,80.5,55,115.8,107.9,151.1c102.1,64.8,208.1,196.3,251.3,310.1c49.1,131.5,70.7,431.8,41.2,569.2C7115,2087.2,7066,2155.9,6962,2207c-43.2,23.6-76.6,55-76.6,72.6c0,80.5-68.7,304.2-139.4,451.4c-106,221.8-266.9,384.7-494.6,496.6c-133.5,66.7-196.3,86.4-302.3,92.3c-162.9,11.8-268.9-23.6-535.8-182.5c-374.9-221.8-429.8-221.8-859.7-2c-241.4,123.7-500.5,219.8-553.5,206.1C3994.2,3341.4,3968.7,3335.6,3941.2,3331.6z M4377,2866.4c351.3-182.5,461.3-215.9,671.3-204.1c192.4,11.8,323.8,60.8,594.7,223.8c233.6,143.3,302.3,149.2,500.5,51c161-78.5,292.5-217.9,351.3-372.9c43.2-117.8,94.2-363.1,96.2-467.1c0-80.5,62.8-141.3,159-157c41.2-7.8,82.4-21.6,88.3-29.4c5.9-9.8,3.9-111.9-3.9-225.7c-15.7-253.2-51-321.9-176.7-347.4c-45.2-7.9-94.2-29.4-111.9-49.1c-15.7-17.7-60.9-127.6-98.1-243.4c-276.8-830.3-844-1303.3-1517.2-1266c-319.9,17.7-571.2,133.5-836.2,384.7c-247.3,233.6-414.1,514.3-543.7,906.8c-35.3,106-78.5,204.1-98.1,221.8c-17.7,15.7-68.7,37.3-109.9,47.1c-123.7,25.5-159,96.2-176.7,345.5c-7.8,113.8-7.8,215.9,0,225.7c5.9,11.8,33.4,21.6,60.8,21.6c66.7,0,159,51,172.7,92.3c5.9,19.6,19.6,115.8,31.4,212c25.5,217.9,49.1,306.2,109.9,425.9c70.7,139.3,155.1,225.7,288.5,290.5C4011.9,3041.1,4053.1,3033.3,4377,2866.4z"/><path d="M3491.7-346.7c-371-78.5-910.7-280.7-1340.6-502.5c-245.4-127.6-555.5-355.2-789-581l-168.8-161l-3.9-147.2c-19.6-849.9,90.3-1489.8,314-1845c94.2-151.1,435.7-482.8,622.2-606.5c569.2-372.9,1197.3-524.1,2479-590.8c549.6-29.4,1332.7,11.8,1888.2,100.1c802.8,127.6,1372,394.5,1795.9,844c278.7,294.4,371,494.6,463.2,1010.8c33.4,182.5,45.2,341.5,51,726.2l9.8,492.7l-74.6,84.4c-108,119.7-414.2,371-612.4,502.5C7700-735.3,7170-515.4,6545.8-364.3c-276.8,68.7-365.1,72.6-425.9,23.6c-41.2-33.4-47.1-68.7-80.5-437.7c-139.4-1532.9-392.6-2533.9-743.9-2926.5c-227.7-255.2-372.9-255.2-596.7,5.9c-345.5,402.4-600.6,1413.2-736,2910.8c-33.4,378.8-39.3,414.2-80.5,447.5C3827.4-295.6,3729.2-297.6,3491.7-346.7z M3670.4-1002.2c180.6-1864.6,618.3-3010.9,1222.8-3201.3c90.3-29.4,115.8-29.4,196.3-7.9c465.2,129.5,824.4,794.9,1059.9,1951c76.6,380.8,155.1,932.3,192.3,1336.7l23.6,274.8l49.1-5.9c104-11.8,549.6-149.2,765.5-233.6c467.1-182.5,863.6-420,1171.8-700.7c133.5-123.7,139.4-133.5,147.2-231.6c13.7-170.8-19.6-767.5-55-973.5c-68.7-414.2-168.8-616.3-425.9-871.5c-441.6-437.7-1001-655.6-1927.5-749.8c-732.1-76.5-1344.5-78.5-2090.4-9.8c-989.2,90.3-1578.1,314-2029.5,771.4c-247.3,251.2-343.5,451.5-412.2,859.7c-41.2,237.5-74.6,810.6-58.9,963.7c11.8,107.9,17.7,117.8,143.3,235.5c280.7,263,555.5,437.7,973.5,618.3c416.1,180.6,904.8,343.5,991.2,331.7C3629.1-648.9,3642.9-723.5,3670.4-1002.2z"/></g></g>
</svg>